<svg width="60" height="60" viewBox="0 0 60 60" fill="none" xmlns="http://www.w3.org/2000/svg">
<path d="M23.7401 26C23.5279 25.2273 23.2173 24.5038 22.8082 23.8295C22.3991 23.1477 21.8916 22.553 21.2855 22.0455C20.687 21.5303 19.9938 21.1288 19.206 20.8409C18.4257 20.553 17.5545 20.4091 16.5923 20.4091C15.0772 20.4091 13.7211 20.803 12.5241 21.5909C11.3272 22.3788 10.3802 23.5152 9.68324 25C8.99384 26.4848 8.64915 28.2727 8.64915 30.3636C8.64915 32.447 8.99763 34.2311 9.6946 35.7159C10.3916 37.2008 11.3461 38.3409 12.5582 39.1364C13.7779 39.9242 15.1719 40.3182 16.7401 40.3182C18.1719 40.3182 19.437 40 20.5355 39.3636C21.634 38.7273 22.4901 37.8182 23.1037 36.6364C23.7249 35.4545 24.0279 34.0492 24.0128 32.4205L24.6946 32.6364H17.2401V30.7273H26.081V32.6364C26.081 34.6212 25.6795 36.3371 24.8764 37.7841C24.0734 39.2311 22.9711 40.3485 21.5696 41.1364C20.1681 41.9242 18.5582 42.3182 16.7401 42.3182C14.7098 42.3182 12.9332 41.8295 11.4105 40.8523C9.88778 39.8674 8.70218 38.4811 7.85369 36.6932C7.01278 34.8977 6.59233 32.7879 6.59233 30.3636C6.59233 28.5379 6.83475 26.8902 7.3196 25.4205C7.80445 23.9508 8.49006 22.6932 9.37642 21.6477C10.2704 20.6023 11.3272 19.803 12.5469 19.25C13.7666 18.6894 15.1151 18.4091 16.5923 18.4091C17.8651 18.4091 19.0279 18.6098 20.081 19.0114C21.1416 19.4129 22.0734 19.9659 22.8764 20.6705C23.687 21.3674 24.3499 22.1742 24.8651 23.0909C25.3878 24 25.7401 24.9697 25.9219 26H23.7401Z" fill="black"/>
<path d="M31.3565 18.7273H33.8111L42.2543 39H42.4588L50.902 18.7273H53.3565V42H51.3565V23.2159H51.1747L43.3224 42H41.3906L33.5384 23.2159H33.3565V42H31.3565V18.7273Z" fill="#E34444"/>
</svg>
